<svg version="1.1" viewBox="0.0 0.0 960.0 960.0" fill="none" stroke="none" stroke-linecap="square" stroke-miterlimit="10" xmlns:xlink="http://www.w3.org/1999/xlink" xmlns="http://www.w3.org/2000/svg"><clipPath id="p.0"><path d="m0 0l960.0 0l0 960.0l-960.0 0l0 -960.0z" clip-rule="nonzero"/></clipPath><g clip-path="url(#p.0)"><path fill="#000000" fill-opacity="0.0" d="m0 0l960.0 0l0 960.0l-960.0 0z" fill-rule="evenodd"/><path fill="#cfe2f3" d="m1459.5721 571.82153l0 0c0 122.29407 -99.138916 221.43304 -221.43298 221.43304c-122.29419 0 -221.4331 -99.13898 -221.4331 -221.43304l110.71655 0c0 61.147034 49.569458 110.71655 110.71655 110.71655c61.146973 0 110.71643 -49.56952 110.71643 -110.71655z" fill-rule="evenodd"/><path fill="#cfe2f3" d="m1348.8608 199.16536l110.70874 0l0 374.01575l-110.70874 0z" fill-rule="evenodd"/><path fill="#cfe2f3" d="m1459.5696 199.16536l0 110.708664l-156.63 0l0 -110.708664z" fill-rule="evenodd"/><path fill="#cfe2f3" d="m-322.27615 225.21785l0 125.20595l25.058655 0l0 -25.058655l19.121399 -25.58252l27.503418 50.641174l28.463821 0l-39.552505 -72.38196l39.552505 -52.82399l-28.463821 0l-46.624817 62.60298l0 -62.60298z" fill-rule="evenodd"/><path stroke="#000000" stroke-width="1.0" stroke-linejoin="round" stroke-linecap="butt" d="m-322.27615 225.21785l0 125.20595l25.058655 0l0 -25.058655l19.121399 -25.58252l27.503418 50.641174l28.463821 0l-39.552505 -72.38196l39.552505 -52.82399l-28.463821 0l-46.624817 62.60298l0 -62.60298z" fill-rule="evenodd"/><path fill="#cfe2f3" d="m-152.52641 225.21785l0 75.17595c0 3.4342957 -0.6596832 6.664856 -1.9790802 9.691681c-1.2999725 3.026825 -3.0850372 5.675293 -5.3551483 7.9454346c-2.2701263 2.270111 -4.9380035 4.06485 -8.003647 5.384247c-3.0462189 1.2999878 -6.286484 1.9499817 -9.720764 1.9499817c-2.211914 0 -4.3947296 -0.29104614 -6.5484314 -0.8731079c-2.153717 -0.5820923 -4.1618958 -1.426117 -6.0245514 -2.532074l0 26.892212c4.1909943 1.04776 8.381989 1.5716248 12.572983 1.5716248c6.926773 0 13.426697 -1.3096924 19.499756 -3.9290466c6.0924683 -2.6193848 11.38942 -6.179779 15.890854 -10.681213c4.5208435 -4.5208435 8.090942 -9.81781 10.710312 -15.890869c2.6193848 -6.0924683 3.929062 -12.602081 3.929062 -19.52887l0 -75.17595z" fill-rule="evenodd"/><path stroke="#000000" stroke-width="1.0" stroke-linejoin="round" stroke-linecap="butt" d="m-152.52641 225.21785l0 75.17595c0 3.4342957 -0.6596832 6.664856 -1.9790802 9.691681c-1.2999725 3.026825 -3.0850372 5.675293 -5.3551483 7.9454346c-2.2701263 2.270111 -4.9380035 4.06485 -8.003647 5.384247c-3.0462189 1.2999878 -6.286484 1.9499817 -9.720764 1.9499817c-2.211914 0 -4.3947296 -0.29104614 -6.5484314 -0.8731079c-2.153717 -0.5820923 -4.1618958 -1.426117 -6.0245514 -2.532074l0 26.892212c4.1909943 1.04776 8.381989 1.5716248 12.572983 1.5716248c6.926773 0 13.426697 -1.3096924 19.499756 -3.9290466c6.0924683 -2.6193848 11.38942 -6.179779 15.890854 -10.681213c4.5208435 -4.5208435 8.090942 -9.81781 10.710312 -15.890869c2.6193848 -6.0924683 3.929062 -12.602081 3.929062 -19.52887l0 -75.17595z" fill-rule="evenodd"/><path fill="#cfe2f3" d="m-296.82208 480.0l0 131.43427l19.674377 0l0 -45.6062l10.739441 -13.213257l40.221893 58.819458l24.505676 0l-51.688934 -73.6626l45.256927 -57.771667l-23.981812 0l-45.053192 58.644836l0 -58.644836zm138.76308 0l0 90.1355c0 6.5581055 -0.5723877 11.564026 -1.7171478 15.0177c-1.125351 3.4536743 -2.8522034 5.811157 -5.1805267 7.0723267c-2.3089294 1.2417603 -5.258148 1.8626709 -8.847656 1.8626709c-4.035782 0 -7.4021454 -0.6500244 -10.099136 -1.9500122c-2.6775818 -1.319397 -5.0253143 -3.1723633 -7.0431976 -5.558899l-8.061844 18.422913c3.822342 3.3372803 8.440201 5.5394897 13.853561 6.6066895c5.43277 1.0671387 10.176743 1.600708 14.231918 1.600708c5.95665 0 11.408813 -1.1835938 16.356522 -3.5507202c4.947693 -2.3865356 8.905869 -6.35437 11.874481 -11.903564c2.9880219 -5.5491943 4.4820404 -13.087158 4.4820404 -22.613892l0 -95.14142z" fill-rule="evenodd"/><path stroke="#000000" stroke-width="1.0" stroke-linejoin="round" stroke-linecap="butt" d="m-296.82208 480.0l0 131.43427l19.674377 0l0 -45.6062l10.739441 -13.213257l40.221893 58.819458l24.505676 0l-51.688934 -73.6626l45.256927 -57.771667l-23.981812 0l-45.053192 58.644836l0 -58.644836zm138.76308 0l0 90.1355c0 6.5581055 -0.5723877 11.564026 -1.7171478 15.0177c-1.125351 3.4536743 -2.8522034 5.811157 -5.1805267 7.0723267c-2.3089294 1.2417603 -5.258148 1.8626709 -8.847656 1.8626709c-4.035782 0 -7.4021454 -0.6500244 -10.099136 -1.9500122c-2.6775818 -1.319397 -5.0253143 -3.1723633 -7.0431976 -5.558899l-8.061844 18.422913c3.822342 3.3372803 8.440201 5.5394897 13.853561 6.6066895c5.43277 1.0671387 10.176743 1.600708 14.231918 1.600708c5.95665 0 11.408813 -1.1835938 16.356522 -3.5507202c4.947693 -2.3865356 8.905869 -6.35437 11.874481 -11.903564c2.9880219 -5.5491943 4.4820404 -13.087158 4.4820404 -22.613892l0 -95.14142z" fill-rule="evenodd"/><path fill="#cfe2f3" d="m-300.48743 668.084l0 125.17688l15.017731 0l0 -57.21875l18.597534 0l27.910843 45.053223c1.319397 2.1536865 2.2701263 3.5603638 2.8522034 4.220093c0.6014862 0.6402588 1.794754 1.6201172 3.5798187 2.9395142l3.405182 2.328308c1.9014587 1.2999878 3.2402496 2.0761108 4.0163574 2.328308c0.77612305 0.23284912 2.2410278 0.3493042 4.3947296 0.3493042l5.005905 0l0 -6.9850464c0 -2.7357788 -0.18432617 -4.4625854 -0.5529785 -5.180481c-0.34924316 -0.7178955 -1.6007233 -1.6686401 -3.754425 -2.852234l-1.9499817 -1.0768433c-1.9208679 -1.0671387 -3.2111511 -1.9014893 -3.8708496 -2.5029297c-0.6402893 -0.60150146 -1.5619202 -1.9111938 -2.7648926 -3.9290771l-22.701218 -35.943604c-1.7850494 -2.871582 -3.279068 -4.307434 -4.482025 -4.307434l0 -0.6984863c1.2029572 0 2.6969757 -1.4940186 4.482025 -4.4820557l21.449738 -34.692078c1.319397 -2.0178833 2.2701263 -3.3275757 2.8522186 -3.9290771c0.60147095 -0.60150146 1.8626556 -1.435791 3.7835236 -2.5029297l1.9499817 -1.0768433c2.1537018 -1.1835938 3.405182 -2.1343384 3.754425 -2.852234c0.36865234 -0.7178955 0.5529785 -2.4447632 0.5529785 -5.180542l0 -6.9849854l-3.9581604 0c-2.1342926 0 -3.589508 0.12609863 -4.365616 0.37835693c-0.7761078 0.23284912 -2.1148987 0.9992676 -4.0163727 2.2992554l-3.405182 2.328308c-2.6193695 1.7850342 -4.7633667 4.1134033 -6.432007 6.9849854l-27.008621 43.452454l-19.325134 0l0 -55.44336z" fill-rule="evenodd"/><path fill="#cfe2f3" d="m-149.54955 668.084l0 105.32782c0 1.7850952 -0.09701538 2.9492188 -0.29104614 3.4924927c-0.17462158 0.5239258 -0.7955017 1.2030029 -1.8626556 2.0372925c-1.0671539 0.8343506 -1.901474 1.3485107 -2.5029602 1.5425415c-0.6014862 0.17462158 -1.9693756 0.2619629 -4.1036835 0.2619629l-19.325134 0c-2.1343079 0 -3.5021973 -0.08734131 -4.1036835 -0.2619629c-0.6014862 -0.19403076 -1.4358063 -0.7081909 -2.5029602 -1.5425415c-1.0671387 -0.83428955 -1.6977386 -1.5133667 -1.8917694 -2.0372925c-0.17462158 -0.5432739 -0.26193237 -1.7073975 -0.26193237 -3.4924927l0 -8.760315l-15.017731 0l0 12.5147705c0 3.5700684 1.4261017 6.548401 4.278305 8.934937l4.307419 3.579834c2.8522034 2.3865356 5.7141113 3.579834 8.585709 3.579834l32.53842 0c2.8716125 0 5.7335052 -1.1932983 8.585709 -3.579834l4.278305 -3.579834c2.8716125 -2.3865356 4.307419 -5.364868 4.307419 -8.934937l0 -109.082275z" fill-rule="evenodd"/><path stroke="#000000" stroke-width="1.0" stroke-linejoin="round" stroke-linecap="butt" d="m-300.48743 668.084l0 125.17688l15.017731 0l0 -57.21875l18.597534 0l27.910843 45.053223c1.319397 2.1536865 2.2701263 3.5603638 2.8522034 4.220093c0.6014862 0.6402588 1.794754 1.6201172 3.5798187 2.9395142l3.405182 2.328308c1.9014587 1.2999878 3.2402496 2.0761108 4.0163574 2.328308c0.77612305 0.23284912 2.2410278 0.3493042 4.3947296 0.3493042l5.005905 0l0 -6.9850464c0 -2.7357788 -0.18432617 -4.4625854 -0.5529785 -5.180481c-0.34924316 -0.7178955 -1.6007233 -1.6686401 -3.754425 -2.852234l-1.9499817 -1.0768433c-1.9208679 -1.0671387 -3.2111511 -1.9014893 -3.8708496 -2.5029297c-0.6402893 -0.60150146 -1.5619202 -1.9111938 -2.7648926 -3.9290771l-22.701218 -35.943604c-1.7850494 -2.871582 -3.279068 -4.307434 -4.482025 -4.307434l0 -0.6984863c1.2029572 0 2.6969757 -1.4940186 4.482025 -4.4820557l21.449738 -34.692078c1.319397 -2.0178833 2.2701263 -3.3275757 2.8522186 -3.9290771c0.60147095 -0.60150146 1.8626556 -1.435791 3.7835236 -2.5029297l1.9499817 -1.0768433c2.1537018 -1.1835938 3.405182 -2.1343384 3.754425 -2.852234c0.36865234 -0.7178955 0.5529785 -2.4447632 0.5529785 -5.180542l0 -6.9849854l-3.9581604 0c-2.1342926 0 -3.589508 0.12609863 -4.365616 0.37835693c-0.7761078 0.23284912 -2.1148987 0.9992676 -4.0163727 2.2992554l-3.405182 2.328308c-2.6193695 1.7850342 -4.7633667 4.1134033 -6.432007 6.9849854l-27.008621 43.452454l-19.325134 0l0 -55.44336z" fill-rule="evenodd"/><path stroke="#000000" stroke-width="1.0" stroke-linejoin="round" stroke-linecap="butt" d="m-149.54955 668.084l0 105.32782c0 1.7850952 -0.09701538 2.9492188 -0.29104614 3.4924927c-0.17462158 0.5239258 -0.7955017 1.2030029 -1.8626556 2.0372925c-1.0671539 0.8343506 -1.901474 1.3485107 -2.5029602 1.5425415c-0.6014862 0.17462158 -1.9693756 0.2619629 -4.1036835 0.2619629l-19.325134 0c-2.1343079 0 -3.5021973 -0.08734131 -4.1036835 -0.2619629c-0.6014862 -0.19403076 -1.4358063 -0.7081909 -2.5029602 -1.5425415c-1.0671387 -0.83428955 -1.6977386 -1.5133667 -1.8917694 -2.0372925c-0.17462158 -0.5432739 -0.26193237 -1.7073975 -0.26193237 -3.4924927l0 -8.760315l-15.017731 0l0 12.5147705c0 3.5700684 1.4261017 6.548401 4.278305 8.934937l4.307419 3.579834c2.8522034 2.3865356 5.7141113 3.579834 8.585709 3.579834l32.53842 0c2.8716125 0 5.7335052 -1.1932983 8.585709 -3.579834l4.278305 -3.579834c2.8716125 -2.3865356 4.307419 -5.364868 4.307419 -8.934937l0 -109.082275z" fill-rule="evenodd"/><path fill="#f6ff00" d="m56.70866 480.0l0 0c0 -233.77734 189.51399 -423.29135 423.29135 -423.29135l0 0c112.263855 0 219.92963 44.596638 299.3122 123.97916c79.38251 79.38252 123.979126 187.04832 123.979126 299.3122l0 0c0 233.77734 -189.51398 423.29132 -423.29132 423.29132l0 0c-233.77734 0 -423.29135 -189.51398 -423.29135 -423.29132z" fill-rule="evenodd"/><path fill="#000000" d="m616.7312 205.80588l0 91.3811l91.38092 0l0 -91.3811zm-182.62766 91.3811l0 91.21759l91.38089 0l0 -91.21759zm-182.59833 -91.3811l0 456.57846l91.38089 0l0 -182.59866l91.21744 0l0 -91.3811l-91.21744 0l0 -182.5987zm365.22598 182.5987l0 273.97977l91.38092 0l0 -273.97977zm-182.62766 91.3811l0 182.59866l91.246796 0l0 91.3811l91.38086 0l0 -91.3811l-91.246765 0l0 -182.59866z" fill-rule="evenodd"/></g></svg>